<?xml version="1.0" encoding="UTF-8" standalone="no"?>
<!-- Created with Inkscape (http://www.inkscape.org/) -->

<svg
   xmlns:dc="http://purl.org/dc/elements/1.1/"
   xmlns:cc="http://creativecommons.org/ns#"
   xmlns:rdf="http://www.w3.org/1999/02/22-rdf-syntax-ns#"
   xmlns:svg="http://www.w3.org/2000/svg"
   xmlns="http://www.w3.org/2000/svg"
   xmlns:xlink="http://www.w3.org/1999/xlink"
   xmlns:sodipodi="http://sodipodi.sourceforge.net/DTD/sodipodi-0.dtd"
   xmlns:inkscape="http://www.inkscape.org/namespaces/inkscape"
   width="230"
   height="90"
   id="svg22915"
   version="1.1"
   inkscape:version="0.48.1 r9760"
   sodipodi:docname="planet-logo.svg"
   inkscape:export-filename="/home/aruiz/Dropbox/Public/planet-logo.png"
   inkscape:export-xdpi="91.110001"
   inkscape:export-ydpi="91.110001">
  <defs
     id="defs22917">
    <linearGradient
       inkscape:collect="always"
       id="linearGradient22069">
      <stop
         style="stop-color:#141414;stop-opacity:1"
         offset="0"
         id="stop22071" />
      <stop
         style="stop-color:#4e514c;stop-opacity:1"
         offset="1"
         id="stop22073" />
    </linearGradient>
    <filter
       inkscape:collect="always"
       id="filter23484"
       color-interpolation-filters="sRGB">
      <feGaussianBlur
         inkscape:collect="always"
         stdDeviation="1.312899"
         id="feGaussianBlur23486" />
    </filter>
    <filter
       inkscape:collect="always"
       id="filter3813"
       color-interpolation-filters="sRGB">
      <feGaussianBlur
         inkscape:collect="always"
         stdDeviation="0.38957314"
         id="feGaussianBlur3815" />
    </filter>
    <linearGradient
       inkscape:collect="always"
       xlink:href="#linearGradient22069"
       id="linearGradient3013"
       gradientUnits="userSpaceOnUse"
       gradientTransform="matrix(0.98765432,0,0,0.98765432,200.86406,359.66388)"
       x1="63"
       y1="161"
       x2="63"
       y2="90" />
  </defs>
  <sodipodi:namedview
     id="base"
     pagecolor="#ffffff"
     bordercolor="#666666"
     borderopacity="1.0"
     inkscape:pageopacity="0.0"
     inkscape:pageshadow="2"
     inkscape:zoom="2"
     inkscape:cx="43.678034"
     inkscape:cy="44.102789"
     inkscape:document-units="px"
     inkscape:current-layer="layer1"
     showgrid="false"
     fit-margin-top="0"
     fit-margin-left="0"
     fit-margin-right="0"
     fit-margin-bottom="0"
     inkscape:window-width="1920"
     inkscape:window-height="1118"
     inkscape:window-x="0"
     inkscape:window-y="25"
     inkscape:window-maximized="1" />
  <metadata
     id="metadata22920">
    <rdf:RDF>
      <cc:Work
         rdf:about="">
        <dc:format>image/svg+xml</dc:format>
        <dc:type
           rdf:resource="http://purl.org/dc/dcmitype/StillImage" />
        <dc:title />
      </cc:Work>
    </rdf:RDF>
  </metadata>
  <g
     inkscape:label="Camada 1"
     inkscape:groupmode="layer"
     id="layer1"
     transform="translate(-202,-455.36218)">
    <rect
       style="fill:#ffffff;fill-opacity:0;stroke:none"
       id="rect23488"
       width="258"
       height="119"
       x="202"
       y="426.36218" />
    <g
       id="g3001"
       transform="matrix(1.0236341,0,0,1.0236341,-11.031382,3.0810618)">
      <path
         inkscape:connector-curvature="0"
         style="fill:#000000;fill-opacity:0.21292778;fill-rule:nonzero;stroke:none;filter:url(#filter23484)"
         d="m 281.45048,450.79968 c -14.5651,0 -17.29863,20.74074 -9.10494,20.74074 8.1925,0 23.67062,-20.74074 9.10494,-20.74074 z m -22.5,2.53086 c -0.23129,-7.9e-4 -0.4845,-0.002 -0.74074,0.0308 -8.19664,1.06388 -5.32124,15.32001 -0.95679,15.58642 4.22632,0.25809 8.8673,-15.59258 1.69753,-15.61729 z m -14.47531,5.64815 c -0.35945,0.0381 -0.7303,0.13877 -1.14197,0.30864 -6.5881,2.7186 -1.00553,13.93326 2.68518,13.17902 3.46281,-0.706 3.84847,-14.0599 -1.54321,-13.48766 z m -10.21605,8.7963 c -0.5728,-0.0193 -1.19233,0.16187 -1.85185,0.61728 -5.2738,3.64394 1.77372,12.44546 4.87654,11.08025 2.71497,-1.19508 0.98491,-11.56259 -3.02469,-11.69753 z m 28.39506,6.72839 c -11.04577,0.37499 -24.65157,6.06161 -27.0679,16.88272 -2.75471,12.32663 11.34338,29.41358 26.04939,29.41358 7.23458,0 15.5993,-6.53944 17.16049,-14.81481 1.19234,-6.31044 -14.0347,-3.77435 -13.48766,0.40123 0.65537,5.00501 -3.66349,7.48582 -7.90123,4.25926 -13.49057,-10.2711 22.33074,-15.41217 19.96914,-29.44445 -0.79634,-4.73183 -7.1646,-6.95409 -14.72223,-6.69753 z m 42.0679,0.80247 c -4.1733,0 -7.4755,1.3068 -9.87654,3.95062 -2.40105,2.64382 -3.58025,6.28476 -3.58025,10.89506 0,4.55932 1.16117,8.16282 3.51852,10.83334 2.35735,2.65596 5.56627,3.98148 9.59877,3.98148 2.00289,0 6.79952,0.029 10.03086,-2.68519 l 0,-13.73457 -9.72222,0 0,4.93828 5.03086,0 0,4.93827 c -0.76474,0.61665 -2.2161,1.2037 -4.53703,1.2037 -2.28209,0 -4.22585,-0.8207 -5.52469,-2.46914 -1.29643,-1.64601 -1.94445,-3.97876 -1.94445,-7.00617 0,-3.05168 0.66606,-5.40073 2.00617,-7.03704 1.35227,-1.64601 3.28317,-2.46913 5.77161,-2.46913 1.34012,0 2.65108,0.23231 3.98148,0.67901 0.78174,0.27919 1.64093,0.67724 2.37654,1.08025 l 1.66667,-4.96914 c -1.30613,-0.70162 -2.68574,-1.24806 -4.16667,-1.60494 -1.47122,-0.35687 -3.02003,-0.52469 -4.62963,-0.52469 z m 51.14198,0 c -3.66834,0.0995 -6.57214,1.42333 -8.7037,3.95062 -2.2044,2.63168 -3.30247,6.25805 -3.30247,10.89506 0,4.62243 1.09807,8.26338 3.30247,10.89506 2.21654,2.63169 5.25382,3.91976 9.1358,3.91976 3.89168,0 6.95984,-1.28807 9.16667,-3.91976 2.20439,-2.63168 3.30246,-6.27263 3.30246,-10.89506 0,-4.63701 -1.09807,-8.26338 -3.30246,-10.89506 -2.20683,-2.63168 -5.27499,-3.95062 -9.16667,-3.95062 -0.15052,0 -0.28401,-0.005 -0.4321,0 z m -37.19136,0.52469 0,28.58025 5.33951,0 0,-17.19136 12.43827,17.19136 3.95062,0 0,-28.58025 -5.33951,0 0,17.19136 -12.43827,-17.19136 -3.95062,0 z m 55.40124,0 -3.02469,28.58025 5.89506,0 1.82098,-18.48765 5.58642,18.58024 3.95062,0 5.58642,-17.96296 1.82099,17.87037 5.89506,0 -3.02469,-28.58025 -6.7284,0 -5.52469,17.83951 -5.52469,-17.83951 -6.72839,0 z m 31.82098,0 0,28.58025 17.19136,0 0,-5.55555 -10.95679,0 0,-6.57408 8.14815,0 0,-4.96913 -8.14815,0 0,-5.92593 10.58642,0 0,-5.55556 -16.82099,0 z m -49.78395,4.81482 c 0.0583,-0.002 0.12692,0 0.18519,0 1.91307,0 3.39565,0.83942 4.44444,2.5 1.04878,1.66058 1.57408,3.9909 1.57408,7.00617 0,3.0007 -0.5253,5.31473 -1.57408,6.97531 -1.04879,1.66058 -2.53137,2.5 -4.44444,2.5 -1.90336,0 -3.3648,-0.83942 -4.41358,-2.5 -1.04879,-1.66058 -1.57408,-3.97461 -1.57408,-6.97531 0,-3.01527 0.52529,-5.34559 1.57408,-7.00617 1.01722,-1.60717 2.41,-2.44902 4.22839,-2.5 z"
         id="path23456" />
      <path
         id="path12532"
         d="m 281.45048,448.79968 c -14.5651,0 -17.29863,20.74074 -9.10494,20.74074 8.1925,0 23.67062,-20.74074 9.10494,-20.74074 z m -22.5,2.53086 c -0.23129,-7.9e-4 -0.4845,-0.002 -0.74074,0.0308 -8.19664,1.06388 -5.32124,15.32001 -0.95679,15.58642 4.22632,0.25809 8.8673,-15.59258 1.69753,-15.61729 z m -14.47531,5.64815 c -0.35945,0.0381 -0.7303,0.13877 -1.14197,0.30864 -6.5881,2.7186 -1.00553,13.93326 2.68518,13.17902 3.46281,-0.706 3.84847,-14.0599 -1.54321,-13.48766 z m -10.21605,8.7963 c -0.5728,-0.0193 -1.19233,0.16187 -1.85185,0.61728 -5.2738,3.64394 1.77372,12.44546 4.87654,11.08025 2.71497,-1.19508 0.98491,-11.56259 -3.02469,-11.69753 z m 28.39506,6.72839 c -11.04577,0.37499 -24.65157,6.06161 -27.0679,16.88272 -2.75471,12.32663 11.34338,29.41358 26.04939,29.41358 7.23458,0 15.5993,-6.53944 17.16049,-14.81481 1.19234,-6.31044 -14.0347,-3.77435 -13.48766,0.40123 0.65537,5.00501 -3.66349,7.48582 -7.90123,4.25926 -13.49057,-10.2711 22.33074,-15.41217 19.96914,-29.44445 -0.79634,-4.73183 -7.1646,-6.95409 -14.72223,-6.69753 z m 42.0679,0.80247 c -4.1733,0 -7.4755,1.3068 -9.87654,3.95062 -2.40105,2.64382 -3.58025,6.28476 -3.58025,10.89506 0,4.55932 1.16117,8.16282 3.51852,10.83334 2.35735,2.65596 5.56627,3.98148 9.59877,3.98148 2.00289,0 6.79952,0.029 10.03086,-2.68519 l 0,-13.73457 -9.72222,0 0,4.93828 5.03086,0 0,4.93827 c -0.76474,0.61665 -2.2161,1.2037 -4.53703,1.2037 -2.28209,0 -4.22585,-0.8207 -5.52469,-2.46914 -1.29643,-1.64601 -1.94445,-3.97876 -1.94445,-7.00617 0,-3.05168 0.66606,-5.40073 2.00617,-7.03704 1.35227,-1.64601 3.28317,-2.46913 5.77161,-2.46913 1.34012,0 2.65108,0.23231 3.98148,0.67901 0.78174,0.27919 1.64093,0.67724 2.37654,1.08025 l 1.66667,-4.96914 c -1.30613,-0.70162 -2.68574,-1.24806 -4.16667,-1.60494 -1.47122,-0.35687 -3.02003,-0.52469 -4.62963,-0.52469 z m 51.14198,0 c -3.66834,0.0995 -6.57214,1.42333 -8.7037,3.95062 -2.2044,2.63168 -3.30247,6.25805 -3.30247,10.89506 0,4.62243 1.09807,8.26338 3.30247,10.89506 2.21654,2.63169 5.25382,3.91976 9.1358,3.91976 3.89168,0 6.95984,-1.28807 9.16667,-3.91976 2.20439,-2.63168 3.30246,-6.27263 3.30246,-10.89506 0,-4.63701 -1.09807,-8.26338 -3.30246,-10.89506 -2.20683,-2.63168 -5.27499,-3.95062 -9.16667,-3.95062 -0.15052,0 -0.28401,-0.005 -0.4321,0 z m -37.19136,0.52469 0,28.58025 5.33951,0 0,-17.19136 12.43827,17.19136 3.95062,0 0,-28.58025 -5.33951,0 0,17.19136 -12.43827,-17.19136 -3.95062,0 z m 55.40124,0 -3.02469,28.58025 5.89506,0 1.82098,-18.48765 5.58642,18.58024 3.95062,0 5.58642,-17.96296 1.82099,17.87037 5.89506,0 -3.02469,-28.58025 -6.7284,0 -5.52469,17.83951 -5.52469,-17.83951 -6.72839,0 z m 31.82098,0 0,28.58025 17.19136,0 0,-5.55555 -10.95679,0 0,-6.57408 8.14815,0 0,-4.96913 -8.14815,0 0,-5.92593 10.58642,0 0,-5.55556 -16.82099,0 z m -49.78395,4.81482 c 0.0583,-0.002 0.12692,0 0.18519,0 1.91307,0 3.39565,0.83942 4.44444,2.5 1.04878,1.66058 1.57408,3.9909 1.57408,7.00617 0,3.0007 -0.5253,5.31473 -1.57408,6.97531 -1.04879,1.66058 -2.53137,2.5 -4.44444,2.5 -1.90336,0 -3.3648,-0.83942 -4.41358,-2.5 -1.04879,-1.66058 -1.57408,-3.97461 -1.57408,-6.97531 0,-3.01527 0.52529,-5.34559 1.57408,-7.00617 1.01722,-1.60717 2.41,-2.44902 4.22839,-2.5 z"
         style="fill:url(#linearGradient3013);fill-opacity:1;fill-rule:nonzero;stroke:none"
         inkscape:connector-curvature="0" />
      <g
         transform="matrix(0.92687324,0,0,0.92687324,23.99152,40.012114)"
         id="g3817">
        <text
           xml:space="preserve"
           style="font-size:15.65170765px;font-style:normal;font-weight:normal;line-height:125%;letter-spacing:0px;word-spacing:0px;fill:#464945;fill-opacity:1;stroke:none;font-family:Bitstream Vera Sans"
           x="296.36011"
           y="464.86218"
           id="text3016"
           sodipodi:linespacing="125%"><tspan
             sodipodi:role="line"
             id="tspan3018"
             x="296.36011"
             y="464.86218"
             style="font-weight:bold;fill:#464945;fill-opacity:1;-inkscape-font-specification:Bitstream Vera Sans Bold">PLANET</tspan></text>
        <text
           xml:space="preserve"
           style="font-size:15.65170765px;font-style:normal;font-weight:normal;line-height:125%;letter-spacing:0px;word-spacing:0px;fill:#000000;fill-opacity:0.21176471;stroke:none;filter:url(#filter3813);font-family:Bitstream Vera Sans"
           x="296.81097"
           y="465.50476"
           id="text3016-3"
           sodipodi:linespacing="125%"><tspan
             sodipodi:role="line"
             id="tspan3018-8"
             x="296.81097"
             y="465.50476"
             style="font-weight:bold;fill:#000000;fill-opacity:0.21176471;-inkscape-font-specification:Bitstream Vera Sans Bold">PLANET</tspan></text>
      </g>
      <path
         inkscape:connector-curvature="0"
         id="path3842"
         d="m 289.9996,477.18156 c 2.49709,3.63532 3.89497,7.71129 3.86585,12.00347 -0.0995,14.67299 -16.77349,26.25987 -37.24233,25.88004 -16.03736,-0.29762 -29.63257,-7.85723 -34.72558,-18.17199 6.0393,8.79214 18.53485,14.98335 33.01608,15.25208 20.46886,0.37985 37.14283,-11.20703 37.24236,-25.88002 0.0215,-3.17671 -0.74904,-6.23336 -2.15638,-9.08358 z"
         style="opacity:0.67826083;fill:#fcaf3e;fill-opacity:1;stroke:none" />
      <path
         sodipodi:nodetypes="cscscc"
         inkscape:connector-curvature="0"
         id="path3842-6"
         d="m 287.78863,504.73914 c -0.41313,8.42992 -12.55209,15.35349 -27.11313,15.46424 -11.40856,0.0868 -20.90941,-4.0371 -24.29403,-9.88016 4.09373,4.95325 12.84373,8.30875 23.14532,8.2304 14.56105,-0.11075 27.71529,-7.41391 28.12843,-15.84384 0.25107,1.21697 0.10173,1.23786 0.13371,2.02934 z"
         style="opacity:0.67826083;fill:#fcaf3e;fill-opacity:1;stroke:none" />
      <path
         inkscape:connector-curvature="0"
         id="path3842-5"
         d="m 290.14203,465.94692 c 2.83772,3.4267 4.45938,7.26543 4.49658,11.30417 0.12722,13.80662 -18.23958,24.66963 -41.02338,24.26321 -17.85113,-0.31845 -33.10239,-7.46436 -38.93716,-17.18247 6.86309,8.28764 20.86848,14.14329 36.98748,14.43083 22.78382,0.40642 41.15063,-10.45657 41.02342,-24.26319 -0.0276,-2.98914 -0.93463,-5.86719 -2.54694,-8.55255 z"
         style="opacity:0.67826083;fill:#fcaf3e;fill-opacity:1;stroke:none" />
    </g>
  </g>
</svg>
